<svg width="212" height="42" viewBox="0 0 212 42" fill="none" xmlns="http://www.w3.org/2000/svg">
<path d="M49.3267 9.89917H31.4391L30.7764 10.4016V26.5339H35.7281V20.4844L36.2008 20.055H49.3274C52.6417 20.055 54.1955 19.151 54.1955 16.8314V13.1273C54.1949 10.8039 52.6417 9.89917 49.3267 9.89917ZM49.3267 15.8633C49.3267 16.9562 48.6136 17.1832 47.0598 17.1832H36.255L35.7275 16.6633V13.2075L36.2001 12.7691H47.0598C48.6136 12.7691 49.3267 12.9935 49.3267 14.0915V15.8633Z" fill="white"/>
<path d="M63.225 12.9508L67.486 19.2797L67.25 19.8927H57.8268L55.4214 22.8926H69.448L70.4201 23.4927L72.5978 26.5378H78.2646L65.8435 9.6929" fill="white"/>
<path d="M119.572 23.2612V18.7837L120.082 18.3375H129.562V15.4864H114.537V26.5372H136.7V23.6996H120.104" fill="white"/>
<path d="M136.934 9.89917H114.537V13.0342H136.934V9.89917Z" fill="white"/>
<path d="M89.5563 12.868H107.6C107.322 10.542 105.898 9.89661 102.287 9.89661H89.3643C85.289 9.89661 83.989 10.703 83.989 13.8296V22.6016C83.989 25.7314 85.289 26.5378 89.3643 26.5378H102.287C105.951 26.5378 107.354 25.8401 107.45 23.4274H89.5563L89.0256 22.921V13.2069" fill="white"/>
<path d="M18.7354 16.3813H5.60885L5.2223 15.95V13.1034L5.60694 12.8021H23.3025L23.5443 12.2026C22.9415 10.6306 21.3807 9.89725 18.4822 9.89725H6.18994C2.11718 9.89725 0.815305 10.7036 0.815305 13.8302V15.6694C0.815305 18.7999 2.11718 19.6049 6.18994 19.6049H19.2872L19.6986 19.971V22.9469L19.3631 23.4112H4.3816V23.397H0.457463C0.457463 23.397 0.00840718 23.6252 0.0256295 23.7319C0.360508 25.919 1.83015 26.5385 5.3486 26.5385H18.7354C22.8076 26.5385 24.1484 25.7321 24.1484 22.6022V20.3111C24.1484 17.1864 22.8076 16.3813 18.7354 16.3813Z" fill="white"/>
<path d="M151.023 9.83063H143.655L143.255 10.6021L151.438 16.649C152.988 15.7392 154.674 14.817 156.509 13.9072" fill="white"/>
<path d="M157.625 21.2216L164.817 26.5385H172.275L172.584 25.8342L161.845 17.8654C160.418 18.9266 159.009 20.0473 157.625 21.2216Z" fill="white"/>
<path d="M149.927 26.5262H143.26L142.697 25.6318C147.23 21.1951 167.503 2.17609 211.569 0.138458C211.569 0.138458 174.582 1.40333 149.927 26.5262Z" fill="white"/>
<path d="M3.16512 39.7046C2.44512 39.7046 1.89178 39.578 1.50512 39.3246C1.11845 39.0713 0.851783 38.698 0.705117 38.2046C0.565117 37.7046 0.495117 37.0413 0.495117 36.2146C0.495117 35.308 0.571783 34.6013 0.725116 34.0946C0.885117 33.588 1.14845 33.2246 1.51512 33.0046C1.88178 32.778 2.39512 32.6646 3.05512 32.6646C3.66178 32.6646 4.33845 32.7546 5.08512 32.9346L5.04512 34.0346C4.38512 33.9346 3.84845 33.8846 3.43512 33.8846C3.01512 33.8846 2.69845 33.9513 2.48512 34.0846C2.27178 34.218 2.12178 34.438 2.03512 34.7446C1.95512 35.0446 1.91512 35.4713 1.91512 36.0246V36.3946C1.92845 36.968 1.96845 37.398 2.03512 37.6846C2.10845 37.9646 2.24845 38.168 2.45512 38.2946C2.66178 38.4213 2.97845 38.4846 3.40512 38.4846C3.85845 38.4846 4.40512 38.438 5.04512 38.3446L5.07512 39.4746C4.34845 39.628 3.71178 39.7046 3.16512 39.7046ZM17.8548 38.3546H15.4748L15.2048 39.5846H13.8248L15.3548 32.7846H17.9748L19.5048 39.5846H18.1248L17.8548 38.3546ZM16.9048 33.9246H16.4248L15.7348 37.1546H17.5948L16.9048 33.9246ZM28.6105 32.7846H31.2505C32.8505 32.7846 33.6505 33.5313 33.6505 35.0246C33.6505 35.9113 33.3171 36.5646 32.6505 36.9846L33.6205 39.5846H32.1105L31.3205 37.3046H29.9905V39.5846H28.6105V32.7846ZM31.2705 36.1246C31.5838 36.1246 31.8238 36.028 31.9905 35.8346C32.1571 35.6346 32.2405 35.368 32.2405 35.0346C32.2405 34.7013 32.1538 34.4413 31.9805 34.2546C31.8071 34.0613 31.5638 33.9646 31.2505 33.9646H29.9905V36.1246H31.2705ZM45.5016 39.7046C44.8016 39.7046 44.2483 39.5813 43.8416 39.3346C43.4416 39.088 43.155 38.708 42.9816 38.1946C42.8083 37.6813 42.7216 37.0013 42.7216 36.1546C42.7216 35.3213 42.8116 34.6513 42.9916 34.1446C43.1716 33.6313 43.4583 33.258 43.8516 33.0246C44.2516 32.7846 44.785 32.6646 45.4516 32.6646C46.0716 32.6646 46.7416 32.7346 47.4616 32.8746L47.8216 32.9446L47.7816 34.0146C47.0083 33.928 46.355 33.8846 45.8216 33.8846C45.295 33.8846 44.9116 33.9746 44.6716 34.1546C44.4316 34.328 44.2816 34.568 44.2216 34.8746C44.1683 35.1746 44.1416 35.6246 44.1416 36.2246C44.1416 36.818 44.1816 37.2746 44.2616 37.5946C44.3416 37.9146 44.485 38.148 44.6916 38.2946C44.905 38.4346 45.2183 38.5046 45.6316 38.5046C46.025 38.5046 46.3016 38.4913 46.4616 38.4646V37.1446H45.8416V35.9446H47.8216V39.4746C46.8483 39.628 46.075 39.7046 45.5016 39.7046ZM59.8449 39.7046C59.1582 39.7046 58.6082 39.5813 58.1949 39.3346C57.7816 39.088 57.4816 38.7113 57.2949 38.2046C57.1149 37.6913 57.0249 37.028 57.0249 36.2146C57.0249 35.3946 57.1149 34.728 57.2949 34.2146C57.4816 33.6946 57.7816 33.308 58.1949 33.0546C58.6082 32.7946 59.1582 32.6646 59.8449 32.6646C60.5316 32.6646 61.0816 32.7946 61.4949 33.0546C61.9082 33.308 62.2049 33.6946 62.3849 34.2146C62.5716 34.728 62.6649 35.3946 62.6649 36.2146C62.6649 37.0146 62.5749 37.668 62.3949 38.1746C62.2216 38.6813 61.9282 39.0646 61.5149 39.3246C61.1016 39.578 60.5449 39.7046 59.8449 39.7046ZM59.8449 38.5046C60.2049 38.5046 60.4849 38.4313 60.6849 38.2846C60.8916 38.1313 61.0349 37.8913 61.1149 37.5646C61.2016 37.2313 61.2449 36.7813 61.2449 36.2146C61.2449 35.648 61.2016 35.198 61.1149 34.8646C61.0282 34.5246 60.8816 34.2746 60.6749 34.1146C60.4749 33.948 60.1982 33.8646 59.8449 33.8646C59.4916 33.8646 59.2116 33.948 59.0049 34.1146C58.8049 34.2746 58.6616 34.5246 58.5749 34.8646C58.4882 35.198 58.4449 35.648 58.4449 36.2146C58.4449 36.7413 58.4816 37.168 58.5549 37.4946C58.6282 37.8213 58.7649 38.0713 58.9649 38.2446C59.1716 38.418 59.4649 38.5046 59.8449 38.5046ZM82.4456 32.7846H84.9456C86.5589 32.7846 87.3656 33.5713 87.3656 35.1446C87.3656 35.9446 87.1589 36.5546 86.7456 36.9746C86.3389 37.3946 85.7389 37.6046 84.9456 37.6046H83.8256V39.5846H82.4456V32.7846ZM84.9356 36.4246C85.6223 36.4246 85.9656 35.998 85.9656 35.1446C85.9656 34.7313 85.8823 34.4313 85.7156 34.2446C85.5556 34.058 85.2956 33.9646 84.9356 33.9646H83.8256V36.4246H84.9356ZM100.404 38.3646V39.5846H96.5343V32.7846H97.9143V38.3646H100.404ZM112.911 38.3546H110.531L110.261 39.5846H108.881L110.411 32.7846H113.031L114.561 39.5846H113.181L112.911 38.3546ZM111.961 33.9246H111.481L110.791 37.1546H112.651L111.961 33.9246ZM129.117 32.7846V39.5846H126.847L125.147 33.9846H125.047V39.5846H123.667V32.7846H125.997L127.637 38.3846H127.737V32.7846H129.117ZM144.25 32.7846V39.5846H141.98L140.28 33.9846H140.18V39.5846H138.8V32.7846H141.13L142.77 38.3846H142.87V32.7846H144.25ZM155.314 33.9846V35.5746H157.734V36.7546H155.314V38.3846H158.334V39.5846H153.934V32.7846H158.334V33.9846H155.314ZM167.671 32.7846H170.311C171.911 32.7846 172.711 33.5313 172.711 35.0246C172.711 35.9113 172.378 36.5646 171.711 36.9846L172.681 39.5846H171.171L170.381 37.3046H169.051V39.5846H167.671V32.7846ZM170.331 36.1246C170.644 36.1246 170.884 36.028 171.051 35.8346C171.218 35.6346 171.301 35.368 171.301 35.0346C171.301 34.7013 171.214 34.4413 171.041 34.2546C170.868 34.0613 170.624 33.9646 170.311 33.9646H169.051V36.1246H170.331Z" fill="white"/>
</svg>
